<svg width="619" height="17" viewBox="0 0 619 17" fill="none" xmlns="http://www.w3.org/2000/svg">
<path fill-rule="evenodd" clip-rule="evenodd" d="M1.82 14.12V0.18H0V14.12H1.82ZM14.8019 1.66V0.18H6.92188V14.12H8.74188V7.84H13.6619V6.36H8.74188V1.66H14.8019ZM31.552 8.86L36.092 0.18H34.072L30.632 7.24L27.192 0.18H25.172L29.732 8.86V14.12H31.552V8.86ZM42.7917 13.36C43.8584 13.96 45.0384 14.26 46.3317 14.26C47.6384 14.26 48.8251 13.96 49.8917 13.36C50.9584 12.7467 51.7984 11.9 52.4117 10.82C53.0251 9.74 53.3317 8.51333 53.3317 7.14C53.3317 5.76667 53.0251 4.54 52.4117 3.46C51.7984 2.38 50.9584 1.54 49.8917 0.94C48.8251 0.326667 47.6384 0.02 46.3317 0.02C45.0384 0.02 43.8584 0.326667 42.7917 0.94C41.7251 1.54 40.8784 2.38667 40.2517 3.48C39.6384 4.56 39.3317 5.78 39.3317 7.14C39.3317 8.5 39.6384 9.72667 40.2517 10.82C40.8784 11.9 41.7251 12.7467 42.7917 13.36ZM48.9517 12C48.1784 12.4533 47.3051 12.68 46.3317 12.68C45.3584 12.68 44.4784 12.4533 43.6917 12C42.9184 11.5467 42.3051 10.9 41.8517 10.06C41.4117 9.22 41.1917 8.24667 41.1917 7.14C41.1917 6.02 41.4117 5.04667 41.8517 4.22C42.3051 3.38 42.9184 2.73333 43.6917 2.28C44.4651 1.82667 45.3451 1.6 46.3317 1.6C47.3184 1.6 48.1984 1.82667 48.9717 2.28C49.7451 2.73333 50.3517 3.38 50.7917 4.22C51.2451 5.04667 51.4717 6.02 51.4717 7.14C51.4717 8.24667 51.2451 9.22 50.7917 10.06C50.3517 10.9 49.7384 11.5467 48.9517 12ZM59.5144 9V0.18H57.6944V8.98C57.6944 10.14 57.921 11.12 58.3744 11.92C58.841 12.7067 59.4677 13.2933 60.2544 13.68C61.0544 14.0667 61.9477 14.26 62.9344 14.26C63.921 14.26 64.8077 14.0667 65.5944 13.68C66.3944 13.2933 67.0277 12.7067 67.4944 11.92C67.961 11.12 68.1944 10.14 68.1944 8.98V0.18H66.3744V9C66.3744 10.24 66.0677 11.16 65.4544 11.76C64.8544 12.36 64.021 12.66 62.9544 12.66C61.8744 12.66 61.0277 12.36 60.4144 11.76C59.8144 11.16 59.5144 10.24 59.5144 9ZM81.6025 14.12L82.7225 11.02H88.8025L89.9225 14.12H91.8425L86.8225 0.26H84.7225L79.6825 14.12H81.6025ZM85.7625 2.5L88.2825 9.54H83.2425L85.7625 2.5ZM102.739 12.64H97.8591V0.18H96.0391V14.12H102.739V12.64ZM110.692 8.42L114.012 14.12H116.192L112.692 8.28C113.799 8.04 114.625 7.55333 115.172 6.82C115.732 6.08667 116.012 5.24 116.012 4.28C116.012 3.49333 115.832 2.79333 115.472 2.18C115.112 1.56667 114.565 1.08 113.832 0.720001C113.112 0.36 112.225 0.18 111.172 0.18H106.672V14.12H108.492V8.42H110.692ZM111.172 6.96H108.492V1.68H111.172C112.172 1.68 112.912 1.90667 113.392 2.36C113.885 2.81333 114.132 3.45333 114.132 4.28C114.132 5.09333 113.885 5.74667 113.392 6.24C112.899 6.72 112.159 6.96 111.172 6.96ZM122.66 6.32V1.66H128.34V0.160001H120.84V14.12H128.34V12.62H122.66V7.82H127.74V6.32H122.66ZM135.254 11.02H141.334L142.454 14.12H144.374L139.354 0.26H137.254L132.214 14.12H134.134L135.254 11.02ZM138.294 2.5L140.814 9.54H135.774L138.294 2.5ZM156.85 1.04C155.744 0.466667 154.43 0.18 152.91 0.18H148.57V14.12H152.91C154.43 14.12 155.744 13.8467 156.85 13.3C157.97 12.74 158.824 11.94 159.41 10.9C160.01 9.84667 160.31 8.60667 160.31 7.18C160.31 5.75333 160.01 4.51333 159.41 3.46C158.824 2.40667 157.97 1.6 156.85 1.04ZM157.03 11.2C156.084 12.1467 154.71 12.62 152.91 12.62H150.39V1.66H152.91C154.697 1.66 156.064 2.14667 157.01 3.12C157.97 4.09333 158.45 5.44667 158.45 7.18C158.45 8.9 157.977 10.24 157.03 11.2ZM169.931 8.86L174.471 0.18H172.451L169.011 7.24L165.571 0.18H163.551L168.111 8.86V14.12H169.931V8.86ZM196.463 14.12V0.18H194.643V6.3H187.543V0.18H185.723V14.12H187.543V7.8H194.643V14.12H196.463ZM203.73 11.02H209.81L210.93 14.12H212.85L207.83 0.26H205.73L200.69 14.12H202.61L203.73 11.02ZM206.77 2.5L209.29 9.54H204.25L206.77 2.5ZM223.307 14.12L228.567 0.18H226.647L222.267 12.2L217.887 0.18H215.947L221.207 14.12H223.307ZM234.383 6.32V1.66H240.062V0.160001H232.562V14.12H240.062V12.62H234.383V7.82H239.462V6.32H234.383ZM253.188 14.12L254.308 11.02H260.388L261.508 14.12H263.428L258.408 0.26H256.308L251.268 14.12H253.188ZM257.348 2.5L259.868 9.54H254.828L257.348 2.5ZM284.097 14.12H285.917V0.160001H284.097V11.24L276.777 0.160001H274.957V14.12H276.777V3.02L284.097 14.12ZM292.06 14.12L293.18 11.02H299.26L300.38 14.12H302.3L297.28 0.26H295.18L290.14 14.12H292.06ZM296.22 2.5L298.74 9.54H293.7L296.22 2.5ZM312.756 14.12L318.016 0.18H316.096L311.716 12.2L307.336 0.18H305.396L310.656 14.12H312.756ZM323.832 14.12V0.18H322.012V14.12H323.832ZM337.814 2.34C338.547 2.78 339.107 3.40667 339.494 4.22H341.674C341.154 2.88667 340.32 1.85333 339.174 1.12C338.04 0.386667 336.734 0.02 335.254 0.02C333.96 0.02 332.78 0.326667 331.714 0.94C330.647 1.54 329.8 2.38667 329.174 3.48C328.56 4.56 328.254 5.78 328.254 7.14C328.254 8.5 328.56 9.72 329.174 10.8C329.8 11.88 330.647 12.7267 331.714 13.34C332.78 13.94 333.96 14.24 335.254 14.24C336.48 14.24 337.594 13.9667 338.594 13.42C339.594 12.86 340.4 12.1067 341.014 11.16C341.627 10.2 341.987 9.14667 342.094 8V6.6H334.594V8.08H340.154C340.007 9.46667 339.494 10.5667 338.614 11.38C337.734 12.1933 336.614 12.6 335.254 12.6C334.28 12.6 333.4 12.38 332.614 11.94C331.84 11.4867 331.227 10.8467 330.774 10.02C330.334 9.19333 330.114 8.23333 330.114 7.14C330.114 6.04667 330.334 5.08667 330.774 4.26C331.227 3.42 331.84 2.78 332.614 2.34C333.4 1.88667 334.28 1.66 335.254 1.66C336.227 1.66 337.08 1.88667 337.814 2.34ZM347.54 14.12L348.66 11.02H354.74L355.86 14.12H357.78L352.76 0.26H350.66L345.62 14.12H347.54ZM351.7 2.5L354.22 9.54H349.18L351.7 2.5ZM370.557 1.66V0.18H361.117V1.66H364.937V14.12H366.757V1.66H370.557ZM377.577 13.36C378.644 13.96 379.824 14.26 381.117 14.26C382.424 14.26 383.61 13.96 384.677 13.36C385.744 12.7467 386.584 11.9 387.197 10.82C387.81 9.74 388.117 8.51333 388.117 7.14C388.117 5.76667 387.81 4.54 387.197 3.46C386.584 2.38 385.744 1.54 384.677 0.94C383.61 0.326667 382.424 0.02 381.117 0.02C379.824 0.02 378.644 0.326667 377.577 0.94C376.51 1.54 375.664 2.38667 375.037 3.48C374.424 4.56 374.117 5.78 374.117 7.14C374.117 8.5 374.424 9.72667 375.037 10.82C375.664 11.9 376.51 12.7467 377.577 13.36ZM383.737 12C382.964 12.4533 382.09 12.68 381.117 12.68C380.144 12.68 379.264 12.4533 378.477 12C377.704 11.5467 377.09 10.9 376.637 10.06C376.197 9.22 375.977 8.24667 375.977 7.14C375.977 6.02 376.197 5.04667 376.637 4.22C377.09 3.38 377.704 2.73333 378.477 2.28C379.25 1.82667 380.13 1.6 381.117 1.6C382.104 1.6 382.984 1.82667 383.757 2.28C384.53 2.73333 385.137 3.38 385.577 4.22C386.03 5.04667 386.257 6.02 386.257 7.14C386.257 8.24667 386.03 9.22 385.577 10.06C385.137 10.9 384.524 11.5467 383.737 12ZM396.54 8.42L399.86 14.12H402.04L398.54 8.28C399.646 8.04 400.473 7.55333 401.02 6.82C401.58 6.08667 401.86 5.24 401.86 4.28C401.86 3.49333 401.68 2.79333 401.32 2.18C400.96 1.56667 400.413 1.08 399.68 0.720001C398.96 0.36 398.073 0.18 397.02 0.18H392.52V14.12H394.34V8.42H396.54ZM397.02 6.96H394.34V1.68H397.02C398.02 1.68 398.76 1.90667 399.24 2.36C399.733 2.81333 399.98 3.45333 399.98 4.28C399.98 5.09333 399.733 5.74667 399.24 6.24C398.746 6.72 398.006 6.96 397.02 6.96ZM415.06 14.12L416.18 11.02H422.26L423.38 14.12H425.3L420.28 0.26H418.18L413.14 14.12H415.06ZM419.22 2.5L421.74 9.54H416.7L419.22 2.5ZM429.736 3.48C429.123 4.56 428.816 5.78 428.816 7.14C428.816 8.5 429.123 9.72 429.736 10.8C430.349 11.88 431.183 12.7267 432.236 13.34C433.303 13.94 434.483 14.24 435.776 14.24C437.296 14.24 438.623 13.88 439.756 13.16C440.889 12.4267 441.716 11.3933 442.236 10.06H440.056C439.669 10.9 439.109 11.5467 438.376 12C437.656 12.44 436.789 12.66 435.776 12.66C434.803 12.66 433.929 12.4333 433.156 11.98C432.383 11.5267 431.776 10.8867 431.336 10.06C430.896 9.22 430.676 8.24667 430.676 7.14C430.676 6.02 430.896 5.04667 431.336 4.22C431.776 3.38 432.383 2.73333 433.156 2.28C433.929 1.82667 434.803 1.6 435.776 1.6C436.789 1.6 437.656 1.82667 438.376 2.28C439.109 2.73333 439.669 3.38 440.056 4.22H442.236C441.716 2.87333 440.889 1.83333 439.756 1.1C438.623 0.366667 437.296 0 435.776 0C434.483 0 433.303 0.306667 432.236 0.92C431.183 1.53333 430.349 2.38667 429.736 3.48ZM447.185 3.48C446.572 4.56 446.265 5.78 446.265 7.14C446.265 8.5 446.572 9.72 447.185 10.8C447.799 11.88 448.632 12.7267 449.685 13.34C450.752 13.94 451.932 14.24 453.225 14.24C454.745 14.24 456.072 13.88 457.205 13.16C458.339 12.4267 459.165 11.3933 459.685 10.06H457.505C457.119 10.9 456.559 11.5467 455.825 12C455.105 12.44 454.239 12.66 453.225 12.66C452.252 12.66 451.379 12.4333 450.605 11.98C449.832 11.5267 449.225 10.8867 448.785 10.06C448.345 9.22 448.125 8.24667 448.125 7.14C448.125 6.02 448.345 5.04667 448.785 4.22C449.225 3.38 449.832 2.73333 450.605 2.28C451.379 1.82667 452.252 1.6 453.225 1.6C454.239 1.6 455.105 1.82667 455.825 2.28C456.559 2.73333 457.119 3.38 457.505 4.22H459.685C459.165 2.87333 458.339 1.83333 457.205 1.1C456.072 0.366667 454.745 0 453.225 0C451.932 0 450.752 0.306667 449.685 0.92C448.632 1.53333 447.799 2.38667 447.185 3.48ZM467.175 13.36C468.241 13.96 469.421 14.26 470.715 14.26C472.021 14.26 473.208 13.96 474.275 13.36C475.341 12.7467 476.181 11.9 476.795 10.82C477.408 9.74 477.715 8.51333 477.715 7.14C477.715 5.76667 477.408 4.54 476.795 3.46C476.181 2.38 475.341 1.54 474.275 0.94C473.208 0.326667 472.021 0.02 470.715 0.02C469.421 0.02 468.241 0.326667 467.175 0.94C466.108 1.54 465.261 2.38667 464.635 3.48C464.021 4.56 463.715 5.78 463.715 7.14C463.715 8.5 464.021 9.72667 464.635 10.82C465.261 11.9 466.108 12.7467 467.175 13.36ZM473.335 12C472.561 12.4533 471.688 12.68 470.715 12.68C469.741 12.68 468.861 12.4533 468.075 12C467.301 11.5467 466.688 10.9 466.235 10.06C465.795 9.22 465.575 8.24667 465.575 7.14C465.575 6.02 465.795 5.04667 466.235 4.22C466.688 3.38 467.301 2.73333 468.075 2.28C468.848 1.82667 469.728 1.6 470.715 1.6C471.701 1.6 472.581 1.82667 473.355 2.28C474.128 2.73333 474.735 3.38 475.175 4.22C475.628 5.04667 475.855 6.02 475.855 7.14C475.855 8.24667 475.628 9.22 475.175 10.06C474.735 10.9 474.121 11.5467 473.335 12ZM483.897 9V0.18H482.077V8.98C482.077 10.14 482.304 11.12 482.757 11.92C483.224 12.7067 483.851 13.2933 484.637 13.68C485.437 14.0667 486.331 14.26 487.317 14.26C488.304 14.26 489.191 14.0667 489.977 13.68C490.777 13.2933 491.411 12.7067 491.877 11.92C492.344 11.12 492.577 10.14 492.577 8.98V0.18H490.757V9C490.757 10.24 490.451 11.16 489.837 11.76C489.237 12.36 488.404 12.66 487.337 12.66C486.257 12.66 485.411 12.36 484.797 11.76C484.197 11.16 483.897 10.24 483.897 9ZM506.753 14.12H508.573V0.160001H506.753V11.24L499.433 0.160001H497.613V14.12H499.433V3.02L506.753 14.12ZM518.456 1.66H522.256V0.18H512.816V1.66H516.636V14.12H518.456V1.66ZM526.136 16.98L528.376 11.6H526.376L524.916 16.98H526.136ZM540.924 14.66C541.658 14.98 542.484 15.14 543.404 15.14C544.364 15.14 545.198 14.9533 545.904 14.58C546.611 14.2067 547.144 13.72 547.504 13.12C547.864 12.52 548.044 11.88 548.044 11.2C548.044 10.32 547.844 9.62667 547.444 9.12C547.044 8.6 546.564 8.22 546.004 7.98C545.444 7.72667 544.704 7.47333 543.784 7.22C543.024 7.00667 542.431 6.82 542.004 6.66C541.591 6.48667 541.238 6.24 540.944 5.92C540.664 5.6 540.524 5.18667 540.524 4.68C540.524 3.97333 540.764 3.42667 541.244 3.04C541.724 2.64 542.344 2.44 543.104 2.44C543.918 2.44 544.571 2.64667 545.064 3.06C545.558 3.46 545.838 3.92667 545.904 4.46H547.904C547.798 3.38 547.324 2.51333 546.484 1.86C545.658 1.20667 544.591 0.879999 543.284 0.879999C542.378 0.879999 541.571 1.04 540.864 1.36C540.171 1.68 539.631 2.13333 539.244 2.72C538.858 3.30667 538.664 3.98 538.664 4.74C538.664 5.60667 538.858 6.3 539.244 6.82C539.644 7.32667 540.118 7.7 540.664 7.94C541.224 8.18 541.964 8.42 542.884 8.66C543.631 8.86 544.224 9.04667 544.664 9.22C545.104 9.39333 545.471 9.64667 545.764 9.98C546.058 10.3133 546.204 10.7467 546.204 11.28C546.204 11.96 545.951 12.52 545.444 12.96C544.951 13.3867 544.271 13.6 543.404 13.6C542.498 13.6 541.804 13.38 541.324 12.94C540.858 12.4867 540.591 11.9333 540.524 11.28H538.584C538.598 12.04 538.811 12.7133 539.224 13.3C539.638 13.8733 540.204 14.3267 540.924 14.66ZM554.543 15V1.06H552.723V15H554.543ZM568.524 3.22C569.258 3.66 569.818 4.28667 570.204 5.1H572.384C571.864 3.76667 571.031 2.73333 569.884 2C568.751 1.26667 567.444 0.899999 565.964 0.899999C564.671 0.899999 563.491 1.20667 562.424 1.82C561.358 2.42 560.511 3.26667 559.884 4.36C559.271 5.44 558.964 6.66 558.964 8.02C558.964 9.38 559.271 10.6 559.884 11.68C560.511 12.76 561.358 13.6067 562.424 14.22C563.491 14.82 564.671 15.12 565.964 15.12C567.191 15.12 568.304 14.8467 569.304 14.3C570.304 13.74 571.111 12.9867 571.724 12.04C572.338 11.08 572.698 10.0267 572.804 8.88V7.48H565.304V8.96H570.864C570.718 10.3467 570.204 11.4467 569.324 12.26C568.444 13.0733 567.324 13.48 565.964 13.48C564.991 13.48 564.111 13.26 563.324 12.82C562.551 12.3667 561.938 11.7267 561.484 10.9C561.044 10.0733 560.824 9.11333 560.824 8.02C560.824 6.92667 561.044 5.96667 561.484 5.14C561.938 4.3 562.551 3.66 563.324 3.22C564.111 2.76667 564.991 2.54 565.964 2.54C566.938 2.54 567.791 2.76667 568.524 3.22ZM586.351 15H588.171V1.04H586.351V12.12L579.031 1.04H577.211V15H579.031V3.9L586.351 15ZM602.425 15V1.06H600.605V15H602.425ZM616.667 15H618.487V1.04H616.667V12.12L609.347 1.04H607.527V15H609.347V3.9L616.667 15Z" fill="black"/>
</svg>
